# xmcd
#
# Track frame offsets:
#	150
#	15310
#	32720
#	45142
#	60227
#	72397
#	88632
#	101875
#	115489
#	130689
#	145423
#
# Disc length: 2178 seconds
#
# Revision: 1
# Processed by: cddbd v1.5.1PL2 Copyright (c) Steve Scherf et al.
# Submitted via: audiograbber 1.81.03
#
DISCID=8c08800b
DTITLE=Tim`Readman - Into the Red
DYEAR=2005
DGENRE=Country
TTITLE0=You Change
TTITLE1=1000 Ring
TTITLE2=Dave's World
TTITLE3=No Longer Relevant
TTITLE4=Dog Days
TTITLE5=On the Brink
TTITLE6=Oh Canada
TTITLE7=Fish in the River
TTITLE8=The`Click
TTITLE9=The`Sparky's Lament
TTITLE10=Whitley Bay Holidays
EXTD=
EXTT0=
EXTT1=
EXTT2=
EXTT3=
EXTT4=
EXTT5=
EXTT6=
EXTT7=
EXTT8=
EXTT9=
EXTT10=
PLAYORDER=
